<svg width="150" height="206" viewBox="0 0 150 206" fill="none" xmlns="http://www.w3.org/2000/svg">
<path fill-rule="evenodd" clip-rule="evenodd" d="M7.73343 47.7795C30.5549 62.1608 55.5632 68.8965 78.93 79.3772C94.0486 86.1575 109.084 93.1069 120.791 105.289C123.948 108.571 126.256 112.671 128.169 116.773C120.659 112.388 113.561 106.922 105.548 103.835C86.8683 96.6382 67.7896 90.4581 48.7899 84.1249C39.0911 80.8931 29.4506 77.7413 21.5077 70.9325C14.5925 65.0062 9.86204 57.8099 7.73343 47.7795Z" fill="url(#paint0_linear_204_187)"/>
<path fill-rule="evenodd" clip-rule="evenodd" d="M36.1668 89.3882C45.669 100.311 56.4 108.148 69.0357 112.615C77.4175 115.583 86.4899 116.71 95.3198 118.28C104.138 119.85 113.042 120.942 122.524 121.711C118.842 119.152 115.475 115.827 111.425 114.178C98.0727 108.745 84.6025 103.531 70.9265 98.983C59.9142 95.3236 48.5429 92.756 36.1668 89.3882Z" fill="url(#paint1_linear_204_187)"/>
<path fill-rule="evenodd" clip-rule="evenodd" d="M3.31845 0C11.7037 13.7468 24.057 22.0338 37.0951 28.9066C56.0057 38.8764 75.5393 47.664 94.7814 57.0027C98.6282 58.8684 102.393 60.9136 106.164 62.9347C118.292 69.4349 128.686 77.6293 133.623 92.1626C134.572 97.9151 136.95 102.929 133.613 113.227C126.934 96.3158 112.718 88.4507 98.5791 81.1697C82.331 72.805 65.3398 65.8956 48.7316 58.2271C38.683 53.5869 28.5783 49.0221 18.7938 43.8618C3.74715 35.9269 -3.04567 19.2901 1.86432 3.67535C2.20956 2.5836 2.70571 1.53873 3.31845 0Z" fill="url(#paint2_linear_204_187)"/>
<path fill-rule="evenodd" clip-rule="evenodd" d="M132.392 88.9834C129.85 104.096 111.651 111.017 98.6134 117.889C79.7051 127.86 60.1726 136.645 40.9259 145.985C37.0791 147.85 33.3168 149.895 29.5454 151.918C17.4185 158.416 7.02466 166.614 2.08837 181.146C1.13495 186.897 -2.09682 192.198 2.09753 202.209C8.77832 185.297 22.9927 177.432 37.1339 170.152C53.3798 161.787 70.3687 154.877 86.9769 147.208C97.0278 142.568 107.132 138.003 116.916 132.843C131.96 124.908 138.753 108.272 133.843 92.6565C133.498 91.5659 133.007 90.5221 132.392 88.9834Z" fill="url(#paint3_linear_204_187)"/>
<path fill-rule="evenodd" clip-rule="evenodd" d="M127.887 136.481C105.066 150.863 80.056 157.598 56.6904 168.079C41.5718 174.859 26.5366 181.81 14.8281 193.989C11.6706 197.274 9.36706 201.374 7.45108 205.476C14.9618 201.091 22.0599 195.625 30.0713 192.538C48.7521 185.339 67.8296 179.159 86.8306 172.827C96.5294 169.595 106.172 166.444 114.113 159.636C121.026 153.707 125.76 146.511 127.887 136.481Z" fill="url(#paint4_linear_204_187)"/>
<path fill-rule="evenodd" clip-rule="evenodd" d="M132.303 88.7023C123.919 102.449 111.56 110.737 98.5253 117.609C79.6147 127.58 60.0811 136.366 40.8367 145.704C36.9921 147.571 33.2276 149.615 29.4563 151.637C17.3282 158.135 6.93205 166.333 1.9992 180.864C1.04578 186.616 -1.32976 191.63 2.00606 201.928C8.68684 185.017 22.9047 177.152 37.0424 169.871C53.2883 161.506 70.2772 154.596 86.8877 146.927C96.9375 142.287 107.039 137.722 116.825 132.564C131.872 124.629 138.665 107.991 133.755 92.3776C133.411 91.2847 132.915 90.2421 132.303 88.7023Z" fill="url(#paint5_linear_204_187)"/>
<path fill-rule="evenodd" clip-rule="evenodd" d="M147.757 61.7563C143.59 69.6763 135.03 73.371 128.639 70.0089C122.246 66.648 120.443 57.5002 124.607 49.579C128.775 41.6602 137.337 37.9643 143.727 41.3252C150.119 44.6896 151.924 53.8351 147.757 61.7563Z" fill="url(#paint6_linear_204_187)"/>
<defs>
<linearGradient id="paint0_linear_204_187" x1="7.734" y1="82.2757" x2="128.171" y2="82.2757" gradientUnits="userSpaceOnUse">
<stop stop-color="#ED0088"/>
<stop offset="1" stop-color="#2C3A8A"/>
</linearGradient>
<linearGradient id="paint1_linear_204_187" x1="36.1663" y1="105.549" x2="122.524" y2="105.549" gradientUnits="userSpaceOnUse">
<stop stop-color="#ED0088"/>
<stop offset="1" stop-color="#2C3A8A"/>
</linearGradient>
<linearGradient id="paint2_linear_204_187" x1="0.287633" y1="56.6131" x2="135.333" y2="56.6131" gradientUnits="userSpaceOnUse">
<stop stop-color="#ED0088"/>
<stop offset="1" stop-color="#2C3A8A"/>
</linearGradient>
<linearGradient id="paint3_linear_204_187" x1="0.000807539" y1="145.596" x2="135.423" y2="145.596" gradientUnits="userSpaceOnUse">
<stop stop-color="#F15937"/>
<stop offset="1" stop-color="#ED0088"/>
</linearGradient>
<linearGradient id="paint4_linear_204_187" x1="7.45051" y1="170.978" x2="127.887" y2="170.978" gradientUnits="userSpaceOnUse">
<stop stop-color="#ED0088"/>
<stop offset="1" stop-color="#F15937"/>
</linearGradient>
<linearGradient id="paint5_linear_204_187" x1="0.286591" y1="145.316" x2="135.333" y2="145.316" gradientUnits="userSpaceOnUse">
<stop stop-color="#ED0088"/>
<stop offset="1" stop-color="#F15937"/>
</linearGradient>
<linearGradient id="paint6_linear_204_187" x1="128.082" y1="69.6963" x2="144.283" y2="41.6367" gradientUnits="userSpaceOnUse">
<stop stop-color="#ED0088"/>
<stop offset="1" stop-color="#F15937"/>
</linearGradient>
</defs>
</svg>
