<svg width="282" height="205" viewBox="0 0 282 205" fill="none" xmlns="http://www.w3.org/2000/svg">
<path d="M5.88582 5.10046H0V0H17.4016V5.10046H11.5157V35.7032H5.88582V5.10046Z" fill="#F1434C"/>
<path d="M20.1274 0H35.4817V5.10046H25.7573V14.5363H33.4856V19.6367H25.7573V30.6027H35.4817V35.7032H20.1274V0Z" fill="#F1434C"/>
<path d="M43.0709 0H50.6969L56.5315 35.7032H50.9016L49.878 28.6135V28.7156H43.4803L42.4567 35.7032H37.2362L43.0709 0ZM49.2126 23.8701L46.7047 6.22256H46.6024L44.1457 23.8701H49.2126Z" fill="#F1434C"/>
<path d="M59.2629 0H67.2983L70.881 25.5533H70.9834L74.566 0H82.6015V35.7032H77.2786V8.67077H77.1763L73.0818 35.7032H68.3731L64.2787 8.67077H64.1763V35.7032H59.2629V0Z" fill="#F1434C"/>
<path d="M3.42529 51.132H18.8935L25.7902 100.322H25.9872L32.8838 51.132H48.3521V119.861H38.1056V67.8233H37.9086L30.0267 119.861H20.9625L13.0806 67.8233H12.8836V119.861H3.42529V51.132Z" fill="#F1434C"/>
<path d="M64.814 51.132H79.494L90.7257 119.861H79.8881L77.9176 106.213V106.409H65.6022L63.6317 119.861H53.5823L64.814 51.132ZM76.6368 97.082L71.8091 63.1105H71.6121L66.883 97.082H76.6368Z" fill="#F1434C"/>
<path d="M95.9836 51.132H109.58L120.122 92.271H120.319V51.132H129.974V119.861H118.841L105.836 69.6888H105.639V119.861H95.9836V51.132Z" fill="#F1434C"/>
<path d="M153.793 120.842C148.538 120.842 144.532 119.37 141.773 116.424C139.015 113.413 137.635 109.126 137.635 103.562V51.132H148.473V104.348C148.473 106.704 148.933 108.406 149.852 109.453C150.837 110.5 152.217 111.024 153.99 111.024C155.764 111.024 157.11 110.5 158.03 109.453C159.015 108.406 159.507 106.704 159.507 104.348V51.132H169.951V103.562C169.951 109.126 168.572 113.413 165.813 116.424C163.054 119.37 159.048 120.842 153.793 120.842Z" fill="#F1434C"/>
<path d="M177.67 51.132H207.227V60.9504H188.507V79.1144H203.384V88.9328H188.507V110.042H207.227V119.861H177.67V51.132Z" fill="#F1434C"/>
<path d="M213.461 51.132H224.299V110.042H242.132V119.861H213.461V51.132Z" fill="#F1434C"/>
<path d="M256.088 51.132H270.768L282 119.861H271.162L269.192 106.213V106.409H256.876L254.906 119.861H244.857L256.088 51.132ZM267.911 97.082L263.083 63.1105H262.886L258.157 97.082H267.911Z" fill="#F1434C"/>
<path d="M0.56811 135.29H11.5042L18.5979 188.603H18.795L25.8887 135.29H35.8396L25.3961 204.018H11.0116L0.56811 135.29Z" fill="#F1434C"/>
<path d="M56.518 205C51.1977 205 47.1254 203.495 44.301 200.484C41.4767 197.473 40.0645 193.218 40.0645 187.72V151.588C40.0645 146.09 41.4767 141.835 44.301 138.824C47.1254 135.813 51.1977 134.308 56.518 134.308C61.8382 134.308 65.9106 135.813 68.7349 138.824C71.5592 141.835 72.9714 146.09 72.9714 151.588V187.72C72.9714 193.218 71.5592 197.473 68.7349 200.484C65.9106 203.495 61.8382 205 56.518 205ZM56.518 195.182C60.2619 195.182 62.1338 192.923 62.1338 188.407V150.901C62.1338 146.384 60.2619 144.126 56.518 144.126C52.7741 144.126 50.9021 146.384 50.9021 150.901V188.407C50.9021 192.923 52.7741 195.182 56.518 195.182Z" fill="#F1434C"/>
<path d="M94.3895 205C89.1349 205 85.1611 203.527 82.4681 200.582C79.7752 197.571 78.4287 193.283 78.4287 187.72V183.792H88.6751V188.505C88.6751 192.956 90.5471 195.182 94.291 195.182C96.1301 195.182 97.5094 194.658 98.429 193.611C99.4142 192.498 99.9068 190.731 99.9068 188.309C99.9068 185.429 99.25 182.909 97.9364 180.749C96.6227 178.523 94.1925 175.872 90.6456 172.796C86.1792 168.868 83.0593 165.334 81.2859 162.192C79.5125 158.985 78.6257 155.384 78.6257 151.392C78.6257 145.959 80.0051 141.77 82.7637 138.824C85.5224 135.813 89.529 134.308 94.7836 134.308C99.9725 134.308 103.881 135.813 106.508 138.824C109.201 141.77 110.547 146.024 110.547 151.588V154.435H100.301V150.901C100.301 148.544 99.8411 146.842 98.9216 145.795C98.002 144.682 96.6556 144.126 94.8821 144.126C91.2696 144.126 89.4633 146.319 89.4633 150.704C89.4633 153.192 90.1202 155.515 91.4338 157.675C92.8131 159.835 95.2762 162.454 98.8231 165.53C103.355 169.457 106.475 173.025 108.183 176.232C109.891 179.439 110.744 183.203 110.744 187.523C110.744 193.152 109.332 197.473 106.508 200.484C103.749 203.495 99.7098 205 94.3895 205Z" fill="#F1434C"/>
</svg>
