<svg width="74" height="98" viewBox="0 0 74 98" fill="none" xmlns="http://www.w3.org/2000/svg">
<g opacity="0.9">
<path fill-rule="evenodd" clip-rule="evenodd" d="M12.7314 28.1304C20.7951 33.5875 29.6315 36.1434 37.8879 40.1205C43.2298 42.6933 48.5423 45.3303 52.679 49.9529C53.7943 51.1983 54.6098 52.7543 55.286 54.3108C52.6321 52.6467 50.1241 50.5727 47.293 49.4011C40.6928 46.6703 33.9516 44.3252 27.2382 41.922C23.8113 40.6957 20.4049 39.4997 17.5984 36.916C15.155 34.6672 13.4836 31.9365 12.7314 28.1304Z" fill="url(#paint0_linear_348_27)" stroke="white" stroke-width="20" stroke-linejoin="round"/>
<path fill-rule="evenodd" clip-rule="evenodd" d="M22.7773 43.9189C26.1348 48.0639 29.9265 51.0375 34.3912 52.7328C37.3528 53.8589 40.5584 54.2866 43.6783 54.8822C46.7943 55.4778 49.9401 55.8925 53.2907 56.1841C51.9896 55.2132 50.8001 53.9513 49.3689 53.3258C44.651 51.264 39.8915 49.2854 35.0593 47.5598C31.1682 46.1712 27.1503 45.1969 22.7773 43.9189Z" fill="url(#paint1_linear_348_27)" stroke="white" stroke-width="20" stroke-linejoin="round"/>
<path fill-rule="evenodd" clip-rule="evenodd" d="M11.1721 10C14.1349 15.2164 18.4998 18.361 23.1066 20.9689C29.7885 24.7521 36.6904 28.0866 43.4894 31.6303C44.8486 32.3383 46.1788 33.1143 47.5113 33.8813C51.7966 36.3478 55.4692 39.4573 57.2138 44.9721C57.549 47.1549 58.3892 49.0576 57.2101 52.9652C54.8499 46.5481 49.8271 43.5636 44.8313 40.8007C39.0902 37.6266 33.0866 35.0048 27.2183 32.0949C23.6677 30.3341 20.0974 28.602 16.6401 26.6438C11.3236 23.6329 8.92342 17.3199 10.6583 11.3947C10.7803 10.9804 10.9556 10.5839 11.1721 10Z" fill="url(#paint2_linear_348_27)" stroke="white" stroke-width="20" stroke-linejoin="round"/>
<path fill-rule="evenodd" clip-rule="evenodd" d="M56.7792 43.7656C55.8808 49.5004 49.4506 52.1266 44.8438 54.7341C38.1628 58.5177 31.2612 61.8514 24.4606 65.3955C23.1014 66.103 21.7721 66.8791 20.4395 67.6469C16.1546 70.1126 12.4821 73.2233 10.7379 78.7377C10.401 80.9201 9.25911 82.9316 10.7411 86.7304C13.1017 80.3128 18.1242 77.3283 23.1208 74.5659C28.8611 71.3918 34.8639 68.7695 40.7322 65.8597C44.2836 64.0989 47.8539 62.3667 51.3107 60.4086C56.6265 57.3976 59.0266 51.085 57.2918 45.1594C57.1698 44.7456 56.9965 44.3495 56.7792 43.7656Z" fill="url(#paint3_linear_348_27)" stroke="white" stroke-width="20" stroke-linejoin="round"/>
<path fill-rule="evenodd" clip-rule="evenodd" d="M55.1854 61.7896C47.1217 67.2467 38.2849 69.8026 30.029 73.7796C24.687 76.3525 19.3745 78.9899 15.2374 83.6116C14.1218 84.8579 13.3078 86.4139 12.6309 87.9704C15.2847 86.3063 17.7927 84.2324 20.6234 83.0607C27.2241 80.3291 33.9649 77.984 40.6786 75.5812C44.1055 74.3548 47.5127 73.1593 50.3184 70.5756C52.761 68.326 54.4336 65.5952 55.1854 61.7896Z" fill="url(#paint4_linear_348_27)" stroke="white" stroke-width="20" stroke-linejoin="round"/>
<path fill-rule="evenodd" clip-rule="evenodd" d="M56.7472 43.6597C53.7848 48.876 49.4179 52.0211 44.8123 54.6286C38.1305 58.4122 31.2285 61.7463 24.4287 65.2895C23.0703 65.9979 21.7402 66.7736 20.4076 67.5409C16.1223 70.0066 12.449 73.1174 10.706 78.6313C10.3691 80.8142 9.52975 82.7168 10.7084 86.6244C13.069 80.2073 18.0927 77.2228 23.0881 74.46C28.8283 71.2859 34.8312 68.6636 40.7003 65.7537C44.2512 63.9929 47.8204 62.2608 51.2784 60.3035C56.595 57.2925 58.9951 50.9791 57.2602 45.0543C57.1386 44.6396 56.9633 44.244 56.7472 43.6597Z" fill="url(#paint5_linear_348_27)" stroke="white" stroke-width="20" stroke-linejoin="round"/>
<path fill-rule="evenodd" clip-rule="evenodd" d="M62.209 33.434C60.7367 36.4393 57.7121 37.8413 55.4541 36.5655C53.1953 35.2902 52.5579 31.819 54.0294 28.8132C55.5022 25.8083 58.5272 24.4058 60.7852 25.6812C63.0436 26.9579 63.6814 30.4282 62.209 33.434Z" fill="url(#paint6_linear_348_27)" stroke="white" stroke-width="20" stroke-linejoin="round"/>
</g>
<path fill-rule="evenodd" clip-rule="evenodd" d="M12.7314 28.1304C20.7951 33.5875 29.6315 36.1434 37.8879 40.1205C43.2298 42.6933 48.5423 45.3303 52.679 49.9529C53.7943 51.1983 54.6098 52.7543 55.286 54.3108C52.6321 52.6467 50.1241 50.5727 47.293 49.4011C40.6928 46.6703 33.9516 44.3252 27.2382 41.922C23.8113 40.6957 20.4049 39.4997 17.5984 36.916C15.155 34.6672 13.4836 31.9365 12.7314 28.1304Z" fill="url(#paint7_linear_348_27)"/>
<path fill-rule="evenodd" clip-rule="evenodd" d="M22.7773 43.9189C26.1348 48.0639 29.9265 51.0375 34.3912 52.7328C37.3528 53.8589 40.5584 54.2866 43.6783 54.8822C46.7943 55.4778 49.9401 55.8925 53.2907 56.1841C51.9896 55.2132 50.8001 53.9513 49.3689 53.3258C44.651 51.264 39.8915 49.2854 35.0593 47.5598C31.1682 46.1712 27.1503 45.1969 22.7773 43.9189Z" fill="url(#paint8_linear_348_27)"/>
<path fill-rule="evenodd" clip-rule="evenodd" d="M11.1721 10C14.1349 15.2164 18.4998 18.361 23.1066 20.9689C29.7885 24.7521 36.6904 28.0866 43.4894 31.6303C44.8486 32.3383 46.1788 33.1143 47.5113 33.8813C51.7966 36.3478 55.4692 39.4573 57.2138 44.9721C57.549 47.1549 58.3892 49.0576 57.2101 52.9652C54.8499 46.5481 49.8271 43.5636 44.8313 40.8007C39.0902 37.6266 33.0866 35.0048 27.2183 32.0949C23.6677 30.3341 20.0974 28.602 16.6401 26.6438C11.3236 23.6329 8.92342 17.3199 10.6583 11.3947C10.7803 10.9804 10.9556 10.5839 11.1721 10Z" fill="url(#paint9_linear_348_27)"/>
<path fill-rule="evenodd" clip-rule="evenodd" d="M56.7792 43.7656C55.8808 49.5004 49.4506 52.1266 44.8438 54.7341C38.1628 58.5177 31.2612 61.8514 24.4606 65.3955C23.1014 66.103 21.7721 66.8791 20.4395 67.6469C16.1546 70.1126 12.4821 73.2233 10.7379 78.7377C10.401 80.9201 9.25911 82.9316 10.7411 86.7304C13.1017 80.3128 18.1242 77.3283 23.1208 74.5659C28.8611 71.3918 34.8639 68.7695 40.7322 65.8597C44.2836 64.0989 47.8539 62.3667 51.3107 60.4086C56.6265 57.3976 59.0266 51.085 57.2918 45.1594C57.1698 44.7456 56.9965 44.3495 56.7792 43.7656Z" fill="url(#paint10_linear_348_27)"/>
<path fill-rule="evenodd" clip-rule="evenodd" d="M55.1854 61.7896C47.1217 67.2467 38.2849 69.8026 30.029 73.7796C24.687 76.3525 19.3745 78.9899 15.2374 83.6116C14.1218 84.8579 13.3078 86.4139 12.6309 87.9704C15.2847 86.3063 17.7927 84.2324 20.6234 83.0607C27.2241 80.3291 33.9649 77.984 40.6786 75.5812C44.1055 74.3548 47.5127 73.1593 50.3184 70.5756C52.761 68.326 54.4336 65.5952 55.1854 61.7896Z" fill="url(#paint11_linear_348_27)"/>
<path fill-rule="evenodd" clip-rule="evenodd" d="M56.7472 43.6597C53.7848 48.876 49.4179 52.0211 44.8123 54.6286C38.1305 58.4122 31.2285 61.7463 24.4287 65.2895C23.0703 65.9979 21.7402 66.7736 20.4076 67.5409C16.1223 70.0066 12.449 73.1174 10.706 78.6313C10.3691 80.8142 9.52975 82.7168 10.7084 86.6244C13.069 80.2073 18.0927 77.2228 23.0881 74.46C28.8283 71.2859 34.8312 68.6636 40.7003 65.7537C44.2512 63.9929 47.8204 62.2608 51.2784 60.3035C56.595 57.2925 58.9951 50.9791 57.2602 45.0543C57.1386 44.6396 56.9633 44.244 56.7472 43.6597Z" fill="url(#paint12_linear_348_27)"/>
<path fill-rule="evenodd" clip-rule="evenodd" d="M62.209 33.434C60.7367 36.4393 57.7121 37.8413 55.4541 36.5655C53.1953 35.2902 52.5579 31.819 54.0294 28.8132C55.5022 25.8083 58.5272 24.4058 60.7852 25.6812C63.0436 26.9579 63.6814 30.4282 62.209 33.434Z" fill="url(#paint13_linear_348_27)"/>
<defs>
<linearGradient id="paint0_linear_348_27" x1="12.7316" y1="41.2203" x2="55.2864" y2="41.2203" gradientUnits="userSpaceOnUse">
<stop stop-color="#ED0088"/>
<stop offset="1" stop-color="#2C3A8A"/>
</linearGradient>
<linearGradient id="paint1_linear_348_27" x1="22.7772" y1="50.0514" x2="53.2905" y2="50.0514" gradientUnits="userSpaceOnUse">
<stop stop-color="#ED0088"/>
<stop offset="1" stop-color="#2C3A8A"/>
</linearGradient>
<linearGradient id="paint2_linear_348_27" x1="10.1012" y1="31.4825" x2="57.8179" y2="31.4825" gradientUnits="userSpaceOnUse">
<stop stop-color="#ED0088"/>
<stop offset="1" stop-color="#2C3A8A"/>
</linearGradient>
<linearGradient id="paint3_linear_348_27" x1="10.0003" y1="65.248" x2="57.8499" y2="65.248" gradientUnits="userSpaceOnUse">
<stop stop-color="#F15937"/>
<stop offset="1" stop-color="#ED0088"/>
</linearGradient>
<linearGradient id="paint4_linear_348_27" x1="12.6307" y1="74.8798" x2="55.1854" y2="74.8798" gradientUnits="userSpaceOnUse">
<stop stop-color="#ED0088"/>
<stop offset="1" stop-color="#F15937"/>
</linearGradient>
<linearGradient id="paint5_linear_348_27" x1="10.1009" y1="65.1423" x2="57.8179" y2="65.1423" gradientUnits="userSpaceOnUse">
<stop stop-color="#ED0088"/>
<stop offset="1" stop-color="#F15937"/>
</linearGradient>
<linearGradient id="paint6_linear_348_27" x1="55.2574" y1="36.4469" x2="61.6155" y2="26.1925" gradientUnits="userSpaceOnUse">
<stop stop-color="#ED0088"/>
<stop offset="1" stop-color="#F15937"/>
</linearGradient>
<linearGradient id="paint7_linear_348_27" x1="12.7316" y1="41.2203" x2="55.2864" y2="41.2203" gradientUnits="userSpaceOnUse">
<stop stop-color="#ED0088"/>
<stop offset="1" stop-color="#2C3A8A"/>
</linearGradient>
<linearGradient id="paint8_linear_348_27" x1="22.7772" y1="50.0514" x2="53.2905" y2="50.0514" gradientUnits="userSpaceOnUse">
<stop stop-color="#ED0088"/>
<stop offset="1" stop-color="#2C3A8A"/>
</linearGradient>
<linearGradient id="paint9_linear_348_27" x1="10.1012" y1="31.4825" x2="57.8179" y2="31.4825" gradientUnits="userSpaceOnUse">
<stop stop-color="#ED0088"/>
<stop offset="1" stop-color="#2C3A8A"/>
</linearGradient>
<linearGradient id="paint10_linear_348_27" x1="10.0003" y1="65.248" x2="57.8499" y2="65.248" gradientUnits="userSpaceOnUse">
<stop stop-color="#F15937"/>
<stop offset="1" stop-color="#ED0088"/>
</linearGradient>
<linearGradient id="paint11_linear_348_27" x1="12.6307" y1="74.8798" x2="55.1854" y2="74.8798" gradientUnits="userSpaceOnUse">
<stop stop-color="#ED0088"/>
<stop offset="1" stop-color="#F15937"/>
</linearGradient>
<linearGradient id="paint12_linear_348_27" x1="10.1009" y1="65.1423" x2="57.8179" y2="65.1423" gradientUnits="userSpaceOnUse">
<stop stop-color="#ED0088"/>
<stop offset="1" stop-color="#F15937"/>
</linearGradient>
<linearGradient id="paint13_linear_348_27" x1="55.2574" y1="36.4469" x2="61.6155" y2="26.1925" gradientUnits="userSpaceOnUse">
<stop stop-color="#ED0088"/>
<stop offset="1" stop-color="#F15937"/>
</linearGradient>
</defs>
</svg>
